PathFileType	4	(X/Y/Z)	T1_P2_NoVision_NoMovement_2_0-733.trc
DataRate	CameraRate	NumFrames	NumMarkers	Units	OrigDataRate	OrigDataStartFrame	OrigNumFrames
60	60	5	27	m	60	91	733
Frame#	Time	RHip			RKnee			RAnkle			RBigToe			RSmallToe			RHeel			LHip			LKnee			LAnkle			LBigToe			LSmallToe			LHeel			Neck			Head			Nose			RShoulder			RElbow			RWrist			RThumb			RIndex			RPinky			LShoulder			LElbow			LWrist			LThumb			LIndex			LPinky		
		X1	Y1	Z1	X2	Y2	Z2	X3	Y3	Z3	X4	Y4	Z4	X5	Y5	Z5	X6	Y6	Z6	X7	Y7	Z7	X8	Y8	Z8	X9	Y9	Z9	X10	Y10	Z10	X11	Y11	Z11	X12	Y12	Z12	X13	Y13	Z13	X14	Y14	Z14	X15	Y15	Z15	X16	Y16	Z16	X17	Y17	Z17	X18	Y18	Z18	X19	Y19	Z19	X20	Y20	Z20	X21	Y21	Z21	X22	Y22	Z22	X23	Y23	Z23	X24	Y24	Z24	X25	Y25	Z25	X26	Y26	Z26	X27	Y27	Z27
92	1.5333333333333334	462.48207736223037	3627.44088563091	527.0661749131535	862.0447419050121	3682.184094561633	542.4214698320828	1256.6816604894173	3753.791793995953	621.1351231113842	1308.1422084038206	3599.132644660169	545.0803035262326	1309.7726555903196	3673.0199735925094	519.8807153748364	1281.5964872162924	3733.2821535562302	622.589373831139	458.68749180079436	3514.9484088635913	727.6030432177581	864.7391027685052	3546.9709491386393	738.8745336951029	1238.9434737164454	3600.452051012826	722.4970963124828	1310.1373480796399	3491.716366907712	669.2819668542209	1270.442280999372	3441.5478800945784	703.1667694347084	1267.7484590066163	3603.9911401422182	698.5665751350556	-94.48659719211405	3550.8055930554947	631.1103753062965	-352.79706376287584	3470.2462120090718	594.6952929174894	-185.28389511618994	3441.599978965808	567.6359079129854	-35.72463835873857	3704.969426060363	519.6156214447676	204.01442657374562	3636.7306657638665	420.38366073687206	361.30913640671577	3459.7936331632513	485.1218279413293	434.0138717056333	3465.616926775584	590.7956494121368	451.4056386328689	3446.000113406766	595.4138911753678	466.0083679841342	3404.050248003923	561.6040485297104	-21.39471522974127	3497.4176185496603	767.5138316369668	221.79950853933929	3391.9152566998155	747.1340779003175	362.67229849799844	3380.939127871624	585.6162472472255	419.6891051735287	3407.881562933127	491.5369597125426	457.1807534096587	3437.8156403748185	498.1327803730914	474.6097446914085	3388.9824441536584	548.1118196572273
93	1.55	457.7066102854755	3625.603649997815	526.0315748172421	861.6824587439028	3682.470045926748	542.3150104876745	1256.7713731276149	3754.4040190921514	621.4048230201042	1315.839363930628	3614.5735909906316	558.2299705765748	1310.3031280224334	3674.478257337095	520.4912368163273	1281.5511664156027	3733.3583069096676	622.5285917271473	454.02809224518717	3513.3855057429637	726.5226639685709	861.5196415391608	3554.4816759263103	737.1592539968088	1236.4035865212168	3605.5644046765215	725.3536232119191	1308.1182394832833	3497.384947517669	672.2688360020559	1270.5203185805312	3441.765916445376	703.2179244647996	1267.4931216053196	3604.18674927687	699.1427283118938	-94.51745083961288	3550.7208408218075	631.0476404413888	-352.76664883792387	3470.2461916190955	594.6277098515291	-185.22425284823268	3456.2529395670354	580.1863902072085	-35.71846168440049	3705.0055232391737	519.6019920466831	204.0500173112679	3636.824997405831	420.3772592897507	361.2476092814762	3459.602831567161	484.9995663982034	434.31627720330823	3468.8983283052467	586.9662655539811	451.3492224740645	3445.668612407161	595.280927392662	465.9751048239777	3403.9731786535085	561.5227684322531	-21.40080884356862	3497.342772676114	767.5096213211436	220.12479013887722	3372.515041561697	740.8435624324759	367.3942645929553	3384.6610891797213	586.8845096352344	424.7517822675508	3410.4408237657426	492.4113001813474	457.2449974798888	3437.6254739802703	498.3382249540269	474.6268976144934	3389.0350492024236	548.2026686302835
94	1.5666666666666667	457.6952192560372	3625.675410930455	526.0337816002047	861.6669666431294	3681.9049701478066	542.1280052566779	1264.0734589515714	3775.863393658476	626.8375986398594	1308.2258538754222	3599.1758457439605	545.0939744096491	1310.0962494953797	3673.9666778455803	520.2730468685513	1281.5488050712734	3733.2170645857464	622.342078869951	458.56702315725045	3516.840970201359	723.133561142997	864.7247445804464	3547.095597496604	738.8491883166442	1238.8749641909274	3600.3468848287234	722.5466432047855	1303.684725889386	3485.116288098868	672.2287093691324	1270.6331406662678	3441.6922812869275	703.1704033287259	1267.765707951765	3603.6356564038406	698.3355302177038	-94.46749348108936	3550.747502945211	631.031620508409	-347.98229630425504	3466.487173396818	592.51555161418	-189.80210040454196	3452.117369568396	578.3075303272951	-35.66202752554147	3705.0143201935252	519.5423313906208	204.10516218740128	3636.843431528296	420.3952025705052	361.1895645024221	3459.6293404089897	484.89020283885515	430.4358094021811	3448.8978896225058	577.4573156175192	451.21142929694065	3445.6095956869094	595.1290131972846	465.731426171855	3404.031766962852	561.489175943829	-21.362703072384335	3497.3280155299894	767.4629480000891	220.13927524994207	3372.43620726984	740.7116836647475	362.67756430739166	3380.882169677149	585.5774765297173	414.4008384225106	3406.262005372851	490.43344778969134	457.1892784474438	3437.6609547551657	497.99244635496353	474.65849465273885	3388.96345623707	548.0886687956345
95	1.5833333333333333	462.4034778282036	3627.3351393253106	526.9853226703452	866.8603993627408	3684.2541350396823	543.8169930895665	1267.021607773489	3770.218993600396	624.0223525640007	1322.60238068495	3611.4052806897384	557.2002544286433	1310.244457178885	3674.0572261573266	520.5530412442843	1289.1612928227019	3755.173747259417	627.8689110681457	458.74948859253266	3515.056515100103	727.6215682307172	864.6717398795879	3546.719264890272	738.7971774002032	1232.5042562252495	3596.4015374060295	721.7366882240364	1309.6468246608158	3488.211222662736	672.7774576999028	1272.8893304661995	3436.4812247225873	700.2826073591781	1267.6536847712898	3603.8568199712995	698.6502721851351	-94.4577388044829	3550.7300575000763	630.9965974995883	-347.22160825198773	3452.164041133147	579.9472722256841	-180.44293942363947	3437.5269007521856	565.2886692977363	-35.62715516015334	3704.9921148752974	519.534255506197	204.04221137389558	3636.5346797286816	420.33365181899256	361.17934699936296	3459.651364918794	484.8350354588738	430.66443547431	3452.7829346325734	573.7632286185933	445.65757411471475	3443.6397645621896	594.0742540310449	465.6256976471801	3403.9777326240437	561.4525352243386	-21.337759706834774	3497.2379179824425	767.4470083526185	221.91968420439085	3391.8390114752365	746.918701654481	367.3397769138583	3384.3718857937197	586.7645766553578	419.47314124391016	3406.4743582907	491.11326402955666	451.8422344366761	3434.056582024036	497.0115604387033	474.35441081715055	3388.7783349753126	548.0407470576026
96	1.6	463.04833665072624	3629.4192411530057	527.0995609691477	868.2012126391393	3686.406659327738	543.4184803556032	1260.9410976191286	3767.7856746138973	622.1546416507092	1310.1234895354344	3594.405982347534	542.4156528757458	1309.7513753026562	3673.199499132629	519.6928813140368	1281.7256432155787	3733.2044150385973	622.1815614855682	463.33959959689986	3512.920876498289	725.344618248038	864.7504303263737	3546.6659071114605	738.7215422002698	1238.997380478415	3600.3961339356574	722.6752596713019	1309.725787445117	3488.552083701132	672.868943535483	1270.6187699234235	3441.694011299756	703.3323687626306	1273.03397543898	3605.3264063516067	700.0215955553068	-94.4980433739019	3550.600334016142	630.994606059285	-352.7587574467819	3470.2179621835467	594.6198593646681	-185.33157527766505	3441.431552588742	567.3584790724478	-35.68657613109938	3704.9854075242183	519.6370463433924	203.9999581494019	3636.595705356346	420.31017106159584	361.16656874180495	3459.63472051456	484.78979660987386	428.98485356443194	3466.9187935645245	585.7269264039078	445.63952612672574	3443.788427432663	594.1114421248164	465.31430763754764	3403.8203607760993	561.3908218196808	-21.34363386761354	3497.1469852554246	767.3770491352445	217.65015279222868	3390.8155554135474	746.3374034456548	362.4948025818838	3380.6616970827217	585.4524367084912	414.50842748729536	3405.6449228443385	490.7144040810459	446.88024406872046	3433.5029305807657	496.5793044352706	473.82321947537963	3388.696805563076	547.9764018424369
